<svg xmlns="http://www.w3.org/2000/svg" xmlns:xlink="http://www.w3.org/1999/xlink" width="500" zoomAndPan="magnify" viewBox="0 0 375 374.999991" height="500" preserveAspectRatio="xMidYMid meet" version="1.0"><defs><g/><clipPath id="b83c99936e"><path d="M 93.265625 217 L 126 217 L 126 244 L 93.265625 244 Z M 93.265625 217 " clip-rule="nonzero"/></clipPath><clipPath id="aa0fadc079"><path d="M 252 132.136719 L 281.84375 132.136719 L 281.84375 160 L 252 160 Z M 252 132.136719 " clip-rule="nonzero"/></clipPath><clipPath id="ddbdcef71b"><path d="M 252 132.136719 L 281 132.136719 L 281 160 L 252 160 Z M 252 132.136719 " clip-rule="nonzero"/></clipPath><clipPath id="7071d19326"><path d="M 194 124.605469 L 235 124.605469 L 235 164 L 194 164 Z M 194 124.605469 " clip-rule="nonzero"/></clipPath><clipPath id="b7ac2d7ce3"><path d="M 194 124.605469 L 235 124.605469 L 235 164 L 194 164 Z M 194 124.605469 " clip-rule="nonzero"/></clipPath></defs><path fill="#5a945b" d="M 140.972656 155.183594 C 128.667969 174.71875 122.59375 197.703125 123.75 220.777344 C 124.007812 225.820312 124.542969 230.40625 125.433594 235.261719 C 123.640625 235.261719 121.855469 235.261719 120.0625 235.261719 C 122.449219 227.859375 126.125 221.023438 130.984375 214.945312 C 135.488281 209.3125 141.273438 204.195312 148.472656 202.503906 C 150.125 202.113281 152.140625 203.304688 151.996094 205.183594 C 151.183594 216.492188 146.300781 227.734375 137.195312 234.78125 C 133.414062 237.707031 129.125 239.824219 124.53125 241.136719 C 121.078125 242.128906 119.605469 236.75 123.050781 235.773438 C 131.632812 233.324219 138.519531 227.546875 142.511719 219.597656 C 143.925781 216.773438 144.941406 213.710938 145.632812 210.550781 C 145.777344 209.902344 145.898438 209.246094 146.011719 208.601562 C 146.066406 208.3125 146.101562 208.011719 146.15625 207.722656 C 146.289062 206.898438 146.132812 207.933594 146.199219 207.464844 C 146.289062 206.710938 146.367188 205.953125 146.421875 205.195312 C 147.59375 206.085938 148.773438 206.988281 149.945312 207.878906 C 143.648438 209.347656 138.832031 213.976562 134.910156 218.886719 C 130.683594 224.183594 127.484375 230.304688 125.421875 236.738281 C 124.644531 239.15625 120.574219 239.613281 120.050781 236.738281 C 115.714844 213.121094 118.589844 188.675781 128.433594 166.75 C 130.664062 161.785156 133.25 156.988281 136.144531 152.378906 C 138.074219 149.351562 142.890625 152.148438 140.972656 155.183594 Z M 140.972656 155.183594 " fill-opacity="1" fill-rule="nonzero"/><path fill="#5a945b" d="M 104.300781 237.765625 C 109.761719 241.449219 117.152344 242.09375 123.183594 239.410156 L 122.605469 239.089844 C 118.246094 232.957031 113.640625 226.601562 106.953125 223.160156 C 103.765625 221.523438 100.253906 220.632812 96.734375 220 C 96.523438 219.953125 96.289062 219.921875 96.097656 220.03125 C 95.820312 220.1875 95.765625 220.554688 95.753906 220.878906 C 95.496094 227.457031 98.839844 234.070312 104.300781 237.765625 Z M 104.300781 237.765625 " fill-opacity="1" fill-rule="nonzero"/><g clip-path="url(#b83c99936e)"><path fill="#5a945b" d="M 105.359375 235.960938 C 110.265625 239.1875 116.683594 239.957031 122.136719 237.609375 C 122.136719 238.808594 122.136719 240.011719 122.136719 241.214844 C 120.507812 240.300781 119.5625 238.375 118.46875 236.894531 C 117.164062 235.125 115.804688 233.390625 114.332031 231.753906 C 111.425781 228.527344 108.046875 225.675781 103.957031 224.074219 C 102.820312 223.628906 101.660156 223.261719 100.480469 222.949219 C 99.476562 222.683594 98.058594 222.625 97.144531 222.191406 C 96.152344 222.136719 96.386719 221.703125 97.847656 220.878906 C 97.835938 221.15625 97.835938 221.433594 97.835938 221.714844 C 97.835938 222.269531 97.871094 222.839844 97.925781 223.382812 C 98.027344 224.308594 98.214844 225.230469 98.472656 226.121094 C 99.554688 230.074219 101.984375 233.625 105.359375 235.960938 C 107.554688 237.484375 105.472656 241.101562 103.253906 239.566406 C 100.011719 237.320312 97.359375 234.300781 95.71875 230.695312 C 94.882812 228.871094 94.257812 226.980469 93.945312 224.984375 C 93.679688 223.226562 93.121094 220.535156 94.246094 218.988281 C 95.609375 217.117188 98.328125 218.152344 100.167969 218.574219 C 102.40625 219.097656 104.589844 219.800781 106.6875 220.734375 C 110.441406 222.402344 113.71875 225.019531 116.527344 227.992188 C 118.132812 229.683594 119.582031 231.507812 121 233.355469 C 121.722656 234.300781 122.425781 235.261719 123.117188 236.226562 C 123.394531 236.617188 123.839844 237.050781 124.019531 237.496094 C 124.0625 237.550781 124.109375 237.621094 124.152344 237.675781 C 123.707031 237.339844 123.605469 237.253906 123.851562 237.398438 C 123.917969 237.386719 124.175781 237.574219 124.242188 237.609375 C 125.5 238.308594 125.714844 240.582031 124.242188 241.214844 C 117.433594 244.152344 109.507812 243.675781 103.253906 239.566406 C 101.015625 238.097656 103.097656 234.480469 105.359375 235.960938 Z M 105.359375 235.960938 " fill-opacity="1" fill-rule="nonzero"/></g><path fill="#ffde59" d="M 164.179688 121.46875 C 162.785156 120.125 166.007812 116.738281 165.425781 111.785156 C 165.027344 108.347656 163.0625 105.886719 162.171875 104.929688 C 159.0625 101.558594 153.019531 98.964844 147.179688 101.558594 C 142.164062 103.792969 138.964844 109.515625 139.679688 114.949219 C 138.332031 113.710938 135.511719 111.453125 131.296875 110.449219 C 129.371094 109.996094 126.257812 109.25 122.726562 110.5625 C 121.835938 110.894531 117.164062 112.632812 115.558594 117.5625 C 114.144531 121.90625 116.140625 125.644531 116.507812 126.289062 C 119.425781 131.476562 125.335938 132.089844 125.878906 132.144531 C 125.546875 132.34375 117.597656 137.476562 118.121094 145.867188 C 118.179688 146.726562 118.523438 152.257812 122.925781 155.164062 C 127.195312 157.980469 133.628906 157.234375 138.488281 152.96875 C 139.878906 158.359375 143.9375 162.585938 149.121094 163.910156 C 155.285156 165.480469 162.507812 162.808594 165.484375 156.777344 C 168.9375 149.765625 164.425781 142.796875 164.222656 142.496094 C 168.269531 142.851562 172.792969 143.0625 175.882812 140.425781 C 177.957031 138.65625 178.957031 135.828125 178.859375 133.101562 C 178.714844 129.105469 176.816406 126.355469 176.136719 125.5 C 175.425781 124.609375 173.273438 121.90625 169.839844 121.304688 C 166.730469 120.78125 165.148438 122.40625 164.179688 121.46875 Z M 164.179688 121.46875 " fill-opacity="1" fill-rule="nonzero"/><path fill="#ffbd59" d="M 162.695312 122.941406 C 160.320312 120.269531 163.230469 116.550781 163.386719 113.566406 C 163.589844 109.90625 161.492188 106.464844 158.460938 104.519531 C 154.714844 102.125 149.84375 101.824219 146.167969 104.550781 C 142.921875 106.957031 141.328125 110.984375 141.785156 114.949219 C 142.007812 116.875 139.421875 117.519531 138.21875 116.429688 C 135.835938 114.269531 132.992188 112.945312 129.859375 112.265625 C 128.109375 111.886719 126.292969 111.765625 124.542969 112.199219 C 123.976562 112.34375 123.429688 112.519531 122.882812 112.742188 C 123.261719 112.597656 122.925781 112.722656 122.757812 112.800781 C 122.492188 112.933594 122.234375 113.054688 121.96875 113.199219 C 119.339844 114.636719 117.332031 117.140625 117.175781 120.222656 C 117.03125 123.050781 118.132812 125.777344 120.273438 127.636719 C 121.320312 128.550781 122.605469 129.195312 123.917969 129.605469 C 124.433594 129.761719 124.957031 129.886719 125.480469 129.996094 C 125.648438 130.03125 126.328125 130.128906 125.613281 130.03125 C 125.714844 130.039062 125.800781 130.050781 125.902344 130.0625 C 127.921875 130.253906 128.800781 132.789062 126.960938 133.949219 C 126.863281 134.015625 126.773438 134.070312 126.671875 134.136719 C 126.527344 134.25 125.871094 134.738281 126.214844 134.472656 C 125.480469 135.0625 124.777344 135.695312 124.121094 136.375 C 122.324219 138.246094 120.953125 140.480469 120.40625 143.03125 C 119.929688 145.300781 120.195312 146.9375 120.832031 148.90625 C 121.710938 151.625 123.695312 153.75 126.503906 154.472656 C 130.226562 155.429688 134.183594 153.917969 137.015625 151.5 C 138.1875 150.5 140.070312 150.820312 140.503906 152.425781 C 141.539062 156.21875 144.015625 159.515625 147.636719 161.195312 C 150.949219 162.730469 155.039062 162.632812 158.304688 161.019531 C 162.0625 159.171875 164.648438 155.574219 164.703125 151.3125 C 164.734375 148.628906 163.910156 145.800781 162.429688 143.554688 C 161.59375 142.296875 162.675781 140.28125 164.234375 140.414062 C 167.621094 140.703125 172.027344 141.214844 174.734375 138.667969 C 177.375 136.183594 177.1875 131.921875 175.757812 128.859375 C 175.492188 128.292969 175.167969 127.757812 174.835938 127.234375 C 174.777344 127.136719 174.332031 126.546875 174.667969 126.980469 C 174.554688 126.835938 174.445312 126.703125 174.332031 126.566406 C 173.496094 125.589844 172.59375 124.710938 171.46875 124.074219 C 170.03125 123.273438 168.492188 123.128906 166.921875 123.496094 C 165.316406 123.886719 164.054688 124.03125 162.695312 122.941406 C 161.816406 122.226562 161.972656 120.734375 162.695312 119.988281 C 163.554688 119.109375 164.78125 119.289062 165.648438 119.988281 C 164.792969 119.757812 164.601562 119.65625 165.082031 119.679688 C 164.902344 119.699219 164.949219 119.6875 165.238281 119.632812 C 165.640625 119.554688 166.027344 119.433594 166.417969 119.367188 C 167.589844 119.144531 168.726562 119.078125 169.917969 119.253906 C 172.015625 119.554688 173.875 120.503906 175.492188 121.847656 C 177.832031 123.785156 179.550781 126.5 180.375 129.417969 C 181.644531 133.882812 180.808594 139.15625 177.042969 142.195312 C 173.441406 145.101562 168.605469 144.988281 164.234375 144.609375 C 164.835938 143.566406 165.4375 142.519531 166.039062 141.472656 C 169.941406 147.382812 169.851562 155.585938 165.148438 161.007812 C 160.054688 166.871094 150.738281 168.128906 144.171875 164.078125 C 140.324219 161.707031 137.652344 157.867188 136.46875 153.550781 C 137.628906 153.859375 138.800781 154.160156 139.957031 154.472656 C 136.648438 157.300781 132.414062 159.226562 127.964844 158.914062 C 123.886719 158.636719 120.195312 156.578125 118.089844 153.015625 C 114.691406 147.269531 115.714844 140.179688 119.726562 135.050781 C 121.144531 133.246094 122.871094 131.578125 124.8125 130.351562 C 125.167969 131.644531 125.511719 132.945312 125.871094 134.238281 C 119.191406 133.625 113.742188 128.695312 113.027344 121.960938 C 112.117188 113.34375 120.484375 106.890625 128.613281 107.847656 C 133.304688 108.402344 137.652344 110.285156 141.152344 113.46875 C 139.957031 113.957031 138.777344 114.445312 137.585938 114.949219 C 136.648438 106.8125 142.945312 99.152344 151.082031 98.453125 C 158.382812 97.816406 165.996094 103.238281 167.320312 110.527344 C 167.734375 112.777344 167.554688 115.015625 166.910156 117.207031 C 166.664062 118.03125 166.351562 118.832031 166.105469 119.65625 C 166.050781 119.824219 166.007812 120.402344 165.882812 120.511719 C 165.660156 120.722656 165.941406 120.347656 165.871094 120.390625 C 165.941406 120.347656 165.640625 119.988281 165.640625 119.980469 C 167.433594 121.992188 164.492188 124.953125 162.695312 122.941406 Z M 162.695312 122.941406 " fill-opacity="1" fill-rule="nonzero"/><path fill="#ffffff" d="M 145.296875 124.199219 C 145.964844 124.308594 149.632812 125.011719 151.785156 128.460938 C 152.164062 129.0625 154.226562 132.390625 152.777344 136.019531 C 151.652344 138.84375 148.6875 140.75 145.652344 140.894531 C 142.621094 141.039062 139.613281 139.546875 137.652344 137.230469 C 137.429688 136.964844 133.570312 132.035156 136.046875 127.671875 C 138.050781 124.152344 142.609375 123.730469 145.296875 124.199219 Z M 145.296875 124.199219 " fill-opacity="1" fill-rule="nonzero"/><path fill="#5a945b" d="M 146.078125 208.492188 C 147.703125 209.59375 145.308594 216.714844 141.988281 222.058594 C 136.613281 230.707031 127.507812 236.875 125.691406 235.371094 C 124.253906 234.167969 127.441406 228.191406 129.191406 224.898438 C 130.371094 222.683594 133.148438 217.917969 138.429688 213.230469 C 141.171875 210.804688 144.773438 207.609375 146.078125 208.492188 Z M 146.078125 208.492188 " fill-opacity="1" fill-rule="nonzero"/><g clip-path="url(#aa0fadc079)"><path fill="#ffde59" d="M 272.46875 135.503906 C 272.625 135.769531 272.761719 136.046875 272.886719 136.328125 M 272.886719 136.328125 C 273.3125 137.359375 273.484375 138.515625 273.324219 139.714844 C 276.414062 138.570312 279.691406 140.074219 280.699219 142.574219 C 281.84375 145.390625 280.011719 149.191406 276.355469 150.050781 C 278.128906 152.804688 277.867188 156.195312 276.0625 158.0625 C 273.730469 160.46875 268.808594 160.335938 266.058594 156.765625 C 263.9375 159.980469 259.703125 160.632812 257.171875 158.804688 C 254.457031 156.832031 253.929688 152.167969 256.871094 149.238281 C 254.105469 148.191406 252.410156 145.695312 252.644531 143.476562 C 252.949219 140.542969 256.640625 137.84375 260.789062 138.96875 C 260.726562 135.226562 263.816406 132.25 267.246094 132.332031 C 269.417969 132.390625 271.375 133.652344 272.46875 135.503906 " fill-opacity="1" fill-rule="nonzero"/></g><path fill="#ffffff" d="M 270.074219 143.84375 C 270.257812 144.03125 270.425781 144.230469 270.582031 144.445312 M 270.582031 144.449219 C 270.984375 145.019531 271.269531 145.679688 271.378906 146.398438 C 271.847656 149.390625 269.191406 152.347656 266.21875 152.148438 C 263.433594 151.964844 261.421875 149.054688 261.765625 146.398438 C 261.992188 144.632812 263.265625 142.917969 265.085938 142.394531 C 266.820312 141.890625 268.796875 142.53125 270.074219 143.84375 " fill-opacity="1" fill-rule="nonzero"/><g clip-path="url(#ddbdcef71b)"><path fill="#e5645e" d="M 277.128906 140.328125 C 275.902344 139.675781 274.53125 139.453125 273.164062 139.613281 C 273.550781 137.523438 272.867188 135.117188 271.230469 133.75 C 270.148438 132.84375 268.777344 132.21875 267.34375 132.179688 C 265.738281 132.140625 264.210938 132.894531 263.121094 134.042969 C 261.898438 135.339844 261.230469 137.042969 261.09375 138.796875 C 258.8125 137.640625 256.003906 137.925781 254.054688 139.652344 C 252.515625 141.09375 251.84375 143.246094 252.226562 145.308594 C 252.566406 147.152344 253.785156 148.6875 255.421875 149.578125 C 255.746094 149.757812 256.082031 149.910156 256.433594 150.035156 C 254.957031 152.363281 254.972656 155.53125 256.960938 157.589844 C 258.367188 159.046875 260.5 159.710938 262.480469 159.339844 C 263.933594 159.070312 265.203125 158.273438 266.160156 157.175781 C 267.265625 158.6875 269.058594 159.753906 270.9375 159.835938 C 273.167969 159.9375 275.464844 158.871094 276.394531 156.773438 C 277.246094 154.863281 276.96875 152.773438 276.625 150.773438 C 278.773438 150.375 280.484375 148.710938 280.664062 146.460938 C 280.867188 143.925781 279.351562 141.511719 277.128906 140.328125 Z M 278.5625 149.179688 C 277.914062 149.710938 276.980469 150.066406 276.230469 150.148438 C 275.992188 150.175781 275.851562 150.347656 275.894531 150.585938 C 276.207031 152.335938 276.523438 154.167969 275.992188 155.910156 C 275.574219 157.253906 274.625 158.292969 273.296875 158.773438 C 271.503906 159.429688 269.570312 159.21875 268.027344 158.066406 C 267.429688 157.625 266.882812 157.058594 266.492188 156.429688 C 266.347656 156.191406 266.046875 156.226562 265.898438 156.429688 C 265.105469 157.480469 263.976562 158.261719 262.699219 158.59375 C 262.078125 158.753906 261.4375 158.796875 260.800781 158.738281 C 260.78125 158.738281 260.671875 158.71875 260.636719 158.71875 C 260.609375 158.714844 260.578125 158.707031 260.550781 158.703125 C 260.425781 158.679688 260.304688 158.652344 260.183594 158.625 C 258.050781 158.101562 256.359375 156.429688 256.105469 154.207031 C 255.933594 152.707031 256.398438 151.226562 257.28125 150.015625 C 257.417969 149.835938 257.277344 149.5625 257.078125 149.511719 C 256.082031 149.253906 255.132812 148.699219 254.398438 147.980469 C 253.074219 146.675781 252.535156 144.738281 252.941406 142.933594 C 253.183594 141.855469 253.738281 140.894531 254.550781 140.140625 C 256.410156 138.488281 259.15625 138.363281 261.238281 139.664062 C 261.464844 139.808594 261.753906 139.621094 261.761719 139.367188 C 261.800781 136.457031 263.671875 133.109375 266.882812 132.875 C 269.449219 132.6875 271.851562 134.574219 272.414062 137.03125 C 272.625 137.957031 272.648438 139.011719 272.386719 139.9375 C 272.3125 140.203125 272.558594 140.40625 272.8125 140.363281 C 275.21875 139.898438 277.707031 140.925781 279.0625 142.96875 C 280.308594 144.847656 280.449219 147.644531 278.5625 149.179688 Z M 267.9375 141.988281 C 266.886719 141.511719 265.691406 141.425781 264.597656 141.757812 C 264.585938 141.761719 264.570312 141.761719 264.554688 141.765625 C 264.542969 141.773438 264.527344 141.777344 264.515625 141.785156 C 262.796875 142.398438 261.660156 143.871094 261.125 145.574219 C 260.53125 147.484375 260.554688 150.132812 262.546875 151.234375 C 263.503906 151.757812 264.78125 151.777344 265.84375 151.660156 C 266.960938 151.539062 267.976562 151.15625 268.746094 150.332031 C 270.207031 148.773438 270.8125 146.542969 270.085938 144.5 C 269.703125 143.425781 268.996094 142.46875 267.9375 141.988281 Z M 268.6875 149.332031 C 268.113281 150.109375 267.410156 150.648438 266.453125 150.867188 C 265.527344 151.085938 264.425781 151.105469 263.5 150.867188 C 261.464844 150.347656 261.25 147.980469 261.65625 146.269531 C 262.054688 144.601562 263.046875 143.027344 264.738281 142.4375 C 265.59375 142.164062 266.480469 142.195312 267.332031 142.488281 C 268.179688 142.78125 268.804688 143.386719 269.203125 144.179688 C 270.058594 145.855469 269.78125 147.835938 268.6875 149.332031 Z M 276.308594 145.386719 C 276.257812 145.546875 276.214844 145.710938 276.164062 145.871094 C 276.109375 146.054688 275.925781 146.15625 275.734375 146.109375 C 275.558594 146.070312 275.441406 145.863281 275.496094 145.683594 C 275.546875 145.523438 275.589844 145.359375 275.640625 145.199219 C 275.695312 145.015625 275.878906 144.914062 276.070312 144.960938 C 276.246094 145.003906 276.355469 145.214844 276.308594 145.386719 Z M 277.816406 144.378906 C 277.789062 144.578125 277.757812 144.765625 277.691406 144.960938 C 277.628906 145.140625 277.457031 145.242188 277.261719 145.199219 C 277.089844 145.160156 276.960938 144.941406 277.023438 144.773438 C 277.050781 144.699219 277.074219 144.621094 277.089844 144.550781 C 277.101562 144.511719 277.105469 144.46875 277.117188 144.429688 C 277.117188 144.417969 277.136719 144.316406 277.128906 144.378906 C 277.15625 144.183594 277.269531 144.042969 277.472656 144.035156 C 277.640625 144.023438 277.839844 144.195312 277.816406 144.378906 Z M 277.140625 146.679688 C 277.101562 146.785156 277.066406 146.890625 277.03125 146.996094 C 276.96875 147.179688 276.796875 147.277344 276.601562 147.234375 C 276.429688 147.195312 276.300781 146.980469 276.363281 146.808594 C 276.402344 146.703125 276.433594 146.597656 276.472656 146.492188 C 276.535156 146.308594 276.707031 146.210938 276.902344 146.253906 C 277.074219 146.296875 277.203125 146.507812 277.140625 146.679688 Z M 258.488281 153.863281 C 258.464844 153.984375 258.445312 154.109375 258.421875 154.234375 C 258.386719 154.421875 258.167969 154.507812 257.992188 154.472656 C 257.800781 154.425781 257.722656 154.222656 257.753906 154.042969 C 257.777344 153.921875 257.800781 153.796875 257.820312 153.675781 C 257.855469 153.484375 258.078125 153.398438 258.25 153.4375 C 258.445312 153.480469 258.523438 153.683594 258.488281 153.863281 Z M 259.988281 152.789062 C 260.039062 152.871094 260.039062 152.960938 260.023438 153.054688 C 260 153.171875 259.984375 153.28125 259.960938 153.398438 C 259.925781 153.585938 259.703125 153.675781 259.53125 153.636719 C 259.449219 153.617188 259.367188 153.546875 259.328125 153.476562 C 259.277344 153.390625 259.277344 153.304688 259.292969 153.210938 C 259.316406 153.09375 259.332031 152.980469 259.355469 152.867188 C 259.386719 152.679688 259.609375 152.589844 259.78125 152.628906 C 259.859375 152.652344 259.945312 152.722656 259.988281 152.789062 Z M 259.523438 155.265625 C 259.492188 155.355469 259.464844 155.4375 259.445312 155.527344 C 259.386719 155.710938 259.203125 155.808594 259.015625 155.765625 C 258.839844 155.726562 258.722656 155.515625 258.777344 155.339844 C 258.804688 155.25 258.832031 155.167969 258.855469 155.078125 C 258.910156 154.898438 259.09375 154.796875 259.28125 154.839844 C 259.460938 154.878906 259.570312 155.097656 259.523438 155.265625 Z M 264.460938 135.476562 C 264.519531 135.371094 264.578125 135.265625 264.636719 135.160156 C 264.730469 134.996094 264.949219 134.949219 265.109375 135.039062 C 265.277344 135.128906 265.320312 135.355469 265.230469 135.507812 C 265.171875 135.613281 265.113281 135.71875 265.054688 135.824219 C 264.960938 135.992188 264.742188 136.035156 264.582031 135.945312 C 264.414062 135.859375 264.371094 135.632812 264.460938 135.476562 Z M 265.988281 135.011719 C 266.042969 134.917969 266.105469 134.816406 266.160156 134.722656 C 266.257812 134.558594 266.464844 134.515625 266.632812 134.601562 C 266.796875 134.691406 266.847656 134.917969 266.753906 135.074219 C 266.699219 135.167969 266.636719 135.265625 266.582031 135.359375 C 266.480469 135.527344 266.277344 135.570312 266.109375 135.480469 C 265.941406 135.398438 265.894531 135.167969 265.988281 135.011719 Z M 265.679688 136.355469 C 265.855469 136.449219 265.882812 136.667969 265.804688 136.828125 C 265.742188 136.949219 265.6875 137.074219 265.625 137.195312 C 265.542969 137.367188 265.308594 137.402344 265.152344 137.320312 C 264.980469 137.226562 264.953125 137.007812 265.03125 136.847656 C 265.09375 136.726562 265.148438 136.601562 265.210938 136.476562 C 265.289062 136.304688 265.527344 136.273438 265.679688 136.355469 Z M 265.679688 136.355469 " fill-opacity="1" fill-rule="nonzero"/></g><g clip-path="url(#7071d19326)"><path fill="#ffde59" d="M 222.757812 129.394531 C 222.976562 129.769531 223.171875 130.164062 223.339844 130.5625 M 223.339844 130.5625 C 223.941406 132.027344 224.179688 133.667969 223.957031 135.375 C 228.277344 133.746094 232.867188 135.886719 234.28125 139.441406 C 235.882812 143.441406 233.316406 148.84375 228.203125 150.058594 C 230.683594 153.976562 230.316406 158.792969 227.789062 161.445312 C 224.523438 164.863281 217.632812 164.675781 213.785156 159.605469 C 210.8125 164.171875 204.886719 165.097656 201.339844 162.496094 C 197.539062 159.699219 196.800781 153.070312 200.921875 148.90625 C 197.050781 147.417969 194.675781 143.875 195.003906 140.722656 C 195.433594 136.554688 200.59375 132.71875 206.402344 134.3125 C 206.320312 129 210.640625 124.769531 215.449219 124.886719 C 218.488281 124.964844 221.226562 126.757812 222.757812 129.394531 " fill-opacity="1" fill-rule="nonzero"/></g><path fill="#ffffff" d="M 219.40625 141.238281 C 219.664062 141.507812 219.894531 141.789062 220.113281 142.097656 M 220.113281 142.105469 C 220.679688 142.914062 221.078125 143.851562 221.234375 144.871094 C 221.886719 149.125 218.167969 153.324219 214.007812 153.039062 C 210.105469 152.78125 207.289062 148.644531 207.773438 144.871094 C 208.089844 142.363281 209.871094 139.925781 212.421875 139.179688 C 214.847656 138.464844 217.617188 139.375 219.40625 141.238281 " fill-opacity="1" fill-rule="nonzero"/><g clip-path="url(#b7ac2d7ce3)"><path fill="#e5645e" d="M 229.28125 136.246094 C 227.5625 135.320312 225.644531 135.003906 223.730469 135.234375 C 224.273438 132.261719 223.316406 128.84375 221.023438 126.902344 C 219.507812 125.613281 217.585938 124.722656 215.582031 124.667969 C 213.332031 124.613281 211.195312 125.683594 209.671875 127.316406 C 207.960938 129.15625 207.027344 131.578125 206.832031 134.070312 C 203.636719 132.425781 199.707031 132.835938 196.980469 135.289062 C 194.824219 137.332031 193.882812 140.390625 194.421875 143.324219 C 194.894531 145.941406 196.597656 148.125 198.890625 149.390625 C 199.34375 149.644531 199.816406 149.863281 200.308594 150.035156 C 198.238281 153.347656 198.261719 157.851562 201.046875 160.777344 C 203.015625 162.84375 206 163.785156 208.777344 163.257812 C 210.804688 162.875 212.585938 161.742188 213.925781 160.1875 C 215.472656 162.332031 217.984375 163.847656 220.613281 163.96875 C 223.738281 164.109375 226.949219 162.589844 228.253906 159.613281 C 229.445312 156.898438 229.058594 153.929688 228.574219 151.089844 C 231.582031 150.523438 233.980469 148.15625 234.226562 144.957031 C 234.515625 141.359375 232.394531 137.929688 229.28125 136.246094 Z M 231.289062 148.828125 C 230.378906 149.582031 229.070312 150.085938 228.023438 150.203125 C 227.6875 150.242188 227.492188 150.484375 227.554688 150.824219 C 227.992188 153.308594 228.433594 155.910156 227.6875 158.386719 C 227.105469 160.296875 225.773438 161.773438 223.917969 162.457031 C 221.40625 163.386719 218.699219 163.085938 216.535156 161.453125 C 215.703125 160.824219 214.933594 160.019531 214.390625 159.125 C 214.1875 158.785156 213.769531 158.832031 213.558594 159.125 C 212.445312 160.617188 210.867188 161.726562 209.078125 162.199219 C 208.207031 162.425781 207.3125 162.488281 206.417969 162.402344 C 206.394531 162.402344 206.242188 162.378906 206.195312 162.378906 C 206.15625 162.371094 206.109375 162.363281 206.070312 162.355469 C 205.898438 162.324219 205.726562 162.285156 205.554688 162.246094 C 202.570312 161.5 200.207031 159.125 199.847656 155.964844 C 199.609375 153.832031 200.261719 151.734375 201.496094 150.011719 C 201.683594 149.753906 201.488281 149.367188 201.210938 149.296875 C 199.816406 148.929688 198.488281 148.140625 197.460938 147.121094 C 195.601562 145.265625 194.847656 142.511719 195.417969 139.949219 C 195.757812 138.417969 196.535156 137.050781 197.671875 135.980469 C 200.277344 133.628906 204.117188 133.457031 207.035156 135.304688 C 207.351562 135.507812 207.757812 135.242188 207.765625 134.878906 C 207.820312 130.746094 210.441406 125.988281 214.933594 125.660156 C 218.527344 125.390625 221.894531 128.070312 222.679688 131.5625 C 222.976562 132.875 223.007812 134.375 222.640625 135.691406 C 222.539062 136.066406 222.882812 136.359375 223.238281 136.296875 C 226.605469 135.632812 230.089844 137.097656 231.988281 139.996094 C 233.730469 142.671875 233.933594 146.640625 231.289062 148.828125 Z M 216.414062 138.605469 C 214.941406 137.929688 213.269531 137.804688 211.738281 138.277344 C 211.722656 138.285156 211.699219 138.285156 211.675781 138.292969 C 211.660156 138.300781 211.636719 138.308594 211.621094 138.316406 C 209.21875 139.1875 207.625 141.277344 206.878906 143.699219 C 206.046875 146.414062 206.078125 150.179688 208.871094 151.742188 C 210.207031 152.488281 211.996094 152.511719 213.480469 152.347656 C 215.042969 152.175781 216.464844 151.632812 217.546875 150.460938 C 219.59375 148.246094 220.441406 145.078125 219.421875 142.175781 C 218.886719 140.648438 217.898438 139.289062 216.414062 138.605469 Z M 217.460938 149.039062 C 216.660156 150.148438 215.671875 150.910156 214.335938 151.222656 C 213.039062 151.53125 211.496094 151.5625 210.199219 151.222656 C 207.351562 150.484375 207.050781 147.121094 207.617188 144.691406 C 208.175781 142.316406 209.570312 140.085938 211.933594 139.242188 C 213.128906 138.859375 214.375 138.898438 215.566406 139.3125 C 216.753906 139.730469 217.625 140.59375 218.183594 141.71875 C 219.382812 144.101562 218.992188 146.914062 217.460938 149.039062 Z M 228.132812 143.433594 C 228.0625 143.660156 228 143.898438 227.929688 144.125 C 227.851562 144.382812 227.59375 144.527344 227.332031 144.464844 C 227.082031 144.40625 226.917969 144.109375 226.996094 143.859375 C 227.066406 143.628906 227.128906 143.394531 227.199219 143.164062 C 227.277344 142.90625 227.53125 142.765625 227.796875 142.828125 C 228.046875 142.890625 228.203125 143.191406 228.132812 143.433594 Z M 230.246094 142.003906 C 230.207031 142.285156 230.160156 142.554688 230.066406 142.828125 C 229.980469 143.085938 229.742188 143.230469 229.46875 143.164062 C 229.226562 143.109375 229.050781 142.804688 229.132812 142.5625 C 229.171875 142.457031 229.203125 142.347656 229.226562 142.246094 C 229.242188 142.191406 229.25 142.128906 229.265625 142.074219 C 229.265625 142.058594 229.289062 141.914062 229.28125 142.003906 C 229.320312 141.726562 229.476562 141.523438 229.765625 141.515625 C 229.996094 141.5 230.277344 141.742188 230.246094 142.003906 Z M 229.296875 145.273438 C 229.242188 145.421875 229.195312 145.570312 229.140625 145.722656 C 229.058594 145.980469 228.816406 146.121094 228.542969 146.058594 C 228.300781 146.003906 228.125 145.699219 228.210938 145.453125 C 228.261719 145.304688 228.308594 145.15625 228.363281 145.003906 C 228.449219 144.746094 228.691406 144.605469 228.964844 144.667969 C 229.203125 144.730469 229.382812 145.027344 229.296875 145.273438 Z M 203.183594 155.476562 C 203.152344 155.648438 203.121094 155.832031 203.089844 156.003906 C 203.042969 156.269531 202.734375 156.398438 202.492188 156.339844 C 202.21875 156.277344 202.113281 155.988281 202.160156 155.738281 C 202.1875 155.5625 202.21875 155.382812 202.25 155.210938 C 202.296875 154.941406 202.609375 154.816406 202.851562 154.871094 C 203.121094 154.933594 203.230469 155.226562 203.183594 155.476562 Z M 205.285156 153.953125 C 205.355469 154.070312 205.355469 154.195312 205.332031 154.328125 C 205.300781 154.496094 205.277344 154.652344 205.246094 154.816406 C 205.199219 155.082031 204.886719 155.210938 204.648438 155.15625 C 204.53125 155.132812 204.414062 155.027344 204.359375 154.925781 C 204.289062 154.808594 204.289062 154.683594 204.3125 154.550781 C 204.34375 154.382812 204.367188 154.226562 204.398438 154.0625 C 204.445312 153.792969 204.753906 153.667969 204.996094 153.722656 C 205.105469 153.753906 205.222656 153.859375 205.285156 153.953125 Z M 204.632812 157.472656 C 204.59375 157.597656 204.554688 157.71875 204.523438 157.84375 C 204.445312 158.101562 204.1875 158.246094 203.921875 158.179688 C 203.675781 158.125 203.511719 157.828125 203.589844 157.574219 C 203.628906 157.449219 203.667969 157.332031 203.699219 157.207031 C 203.777344 156.945312 204.03125 156.804688 204.296875 156.867188 C 204.546875 156.921875 204.699219 157.230469 204.632812 157.472656 Z M 211.542969 129.351562 C 211.628906 129.203125 211.707031 129.054688 211.792969 128.90625 C 211.925781 128.667969 212.230469 128.605469 212.453125 128.730469 C 212.6875 128.859375 212.75 129.179688 212.625 129.402344 C 212.539062 129.550781 212.460938 129.699219 212.375 129.847656 C 212.246094 130.085938 211.941406 130.148438 211.714844 130.023438 C 211.480469 129.894531 211.417969 129.574219 211.542969 129.351562 Z M 213.683594 128.691406 C 213.761719 128.558594 213.847656 128.417969 213.925781 128.285156 C 214.0625 128.046875 214.351562 127.984375 214.585938 128.113281 C 214.816406 128.238281 214.886719 128.558594 214.757812 128.78125 C 214.679688 128.914062 214.59375 129.054688 214.515625 129.1875 C 214.375 129.425781 214.085938 129.488281 213.855469 129.359375 C 213.621094 129.242188 213.550781 128.914062 213.683594 128.691406 Z M 213.253906 130.601562 C 213.496094 130.738281 213.535156 131.042969 213.425781 131.273438 C 213.339844 131.445312 213.261719 131.625 213.175781 131.796875 C 213.0625 132.042969 212.734375 132.089844 212.515625 131.972656 C 212.273438 131.835938 212.238281 131.53125 212.34375 131.304688 C 212.429688 131.128906 212.507812 130.949219 212.59375 130.777344 C 212.703125 130.53125 213.039062 130.484375 213.253906 130.601562 Z M 213.253906 130.601562 " fill-opacity="1" fill-rule="nonzero"/></g><g fill="#d47804" fill-opacity="1"><g transform="translate(180.144674, 230.954135)"><g><path d="M 13.875 -4.46875 C 14.5625 -4.46875 15.054688 -4.382812 15.359375 -4.21875 C 15.660156 -4.050781 15.867188 -3.8125 15.984375 -3.5 C 16.097656 -3.1875 16.15625 -2.785156 16.15625 -2.296875 C 16.15625 -1.804688 16.109375 -1.410156 16.015625 -1.109375 C 15.929688 -0.816406 15.828125 -0.59375 15.703125 -0.4375 C 15.585938 -0.28125 15.40625 -0.171875 15.15625 -0.109375 C 14.882812 -0.00390625 14.441406 0.046875 13.828125 0.046875 L 2.953125 0.046875 C 2.554688 0.046875 2.171875 -0.0546875 1.796875 -0.265625 C 1.035156 -0.703125 0.65625 -1.390625 0.65625 -2.328125 C 0.65625 -2.773438 0.757812 -3.140625 0.96875 -3.421875 L 9.078125 -14.640625 L 3.0625 -14.640625 C 2.644531 -14.640625 2.332031 -14.648438 2.125 -14.671875 C 1.925781 -14.703125 1.6875 -14.78125 1.40625 -14.90625 C 0.90625 -15.144531 0.65625 -15.796875 0.65625 -16.859375 C 0.65625 -17.972656 0.890625 -18.65625 1.359375 -18.90625 C 1.617188 -19.039062 1.847656 -19.117188 2.046875 -19.140625 C 2.253906 -19.171875 2.566406 -19.1875 2.984375 -19.1875 L 13.484375 -19.1875 C 13.890625 -19.1875 14.273438 -19.082031 14.640625 -18.875 C 15.003906 -18.664062 15.285156 -18.382812 15.484375 -18.03125 C 15.679688 -17.6875 15.78125 -17.28125 15.78125 -16.8125 C 15.78125 -16.34375 15.675781 -15.96875 15.46875 -15.6875 L 7.375 -4.46875 Z M 13.875 -4.46875 "/></g></g></g><g fill="#5a945b" fill-opacity="1"><g transform="translate(200.434211, 234.790161)"><g><path d="M 19.3125 -11.5 C 19.3125 -10.0625 18.953125 -8.992188 18.234375 -8.296875 C 17.523438 -7.609375 16.734375 -7.265625 15.859375 -7.265625 L 7.515625 -7.265625 C 7.515625 -6.609375 7.898438 -6.054688 8.671875 -5.609375 C 9.441406 -5.160156 10.21875 -4.9375 11 -4.9375 C 12.363281 -4.9375 13.429688 -5.078125 14.203125 -5.359375 L 14.59375 -5.5 C 15.15625 -5.757812 15.625 -5.890625 16 -5.890625 C 16.75 -5.890625 17.394531 -5.359375 17.9375 -4.296875 C 18.25 -3.660156 18.40625 -3.117188 18.40625 -2.671875 C 18.40625 -0.585938 15.898438 0.453125 10.890625 0.453125 C 9.148438 0.453125 7.601562 0.15625 6.25 -0.4375 C 4.90625 -1.039062 3.859375 -1.832031 3.109375 -2.8125 C 1.617188 -4.71875 0.875 -6.847656 0.875 -9.203125 C 0.875 -12.160156 1.832031 -14.523438 3.75 -16.296875 C 5.664062 -18.078125 8.054688 -18.96875 10.921875 -18.96875 C 14.191406 -18.96875 16.59375 -17.816406 18.125 -15.515625 C 18.914062 -14.285156 19.3125 -12.945312 19.3125 -11.5 Z M 11.875 -10.46875 C 12.769531 -10.46875 13.21875 -10.84375 13.21875 -11.59375 C 13.21875 -12.132812 13.007812 -12.566406 12.59375 -12.890625 C 12.1875 -13.222656 11.597656 -13.390625 10.828125 -13.390625 C 10.066406 -13.390625 9.3125 -13.078125 8.5625 -12.453125 C 7.8125 -11.835938 7.4375 -11.175781 7.4375 -10.46875 Z M 11.875 -10.46875 "/></g></g></g><g fill="#d47804" fill-opacity="1"><g transform="translate(224.599172, 231.338776)"><g><path d="M 8.703125 -13.78125 C 10.441406 -13.78125 11.890625 -13.113281 13.046875 -11.78125 C 14.210938 -10.445312 14.796875 -8.820312 14.796875 -6.90625 L 14.796875 -2.296875 C 14.796875 -1.898438 14.78125 -1.597656 14.75 -1.390625 C 14.726562 -1.191406 14.65625 -0.972656 14.53125 -0.734375 C 14.289062 -0.265625 13.613281 -0.03125 12.5 -0.03125 C 11.257812 -0.03125 10.546875 -0.351562 10.359375 -1 C 10.242188 -1.289062 10.1875 -1.734375 10.1875 -2.328125 L 10.1875 -6.921875 C 10.1875 -7.640625 9.984375 -8.195312 9.578125 -8.59375 C 9.171875 -9 8.625 -9.203125 7.9375 -9.203125 C 7.25 -9.203125 6.691406 -8.992188 6.265625 -8.578125 C 5.835938 -8.160156 5.625 -7.609375 5.625 -6.921875 L 5.625 -2.296875 C 5.625 -1.898438 5.609375 -1.597656 5.578125 -1.390625 C 5.554688 -1.191406 5.472656 -0.972656 5.328125 -0.734375 C 5.109375 -0.265625 4.4375 -0.03125 3.3125 -0.03125 C 2.21875 -0.03125 1.550781 -0.265625 1.3125 -0.734375 C 1.1875 -0.992188 1.109375 -1.222656 1.078125 -1.421875 C 1.054688 -1.617188 1.046875 -1.921875 1.046875 -2.328125 L 1.046875 -11.578125 C 1.046875 -11.960938 1.054688 -12.253906 1.078125 -12.453125 C 1.109375 -12.648438 1.191406 -12.875 1.328125 -13.125 C 1.578125 -13.5625 2.25 -13.78125 3.34375 -13.78125 C 4.40625 -13.78125 5.0625 -13.578125 5.3125 -13.171875 C 5.476562 -12.878906 5.5625 -12.523438 5.5625 -12.109375 C 5.632812 -12.222656 5.789062 -12.394531 6.03125 -12.625 C 6.28125 -12.851562 6.519531 -13.035156 6.75 -13.171875 C 7.34375 -13.578125 7.992188 -13.78125 8.703125 -13.78125 Z M 8.703125 -13.78125 "/></g></g></g><g fill="#5a945b" fill-opacity="1"><g transform="translate(143.629199, 191.748328)"><g><path d="M 21.195312 -25 C 20.515625 -26.394531 17.933594 -25.304688 16.441406 -25.714844 C 16.441406 -25.714844 15.929688 -25.507812 14.910156 -25.507812 C 13.925781 -25.507812 14.367188 -25.714844 13.6875 -25.714844 C 13.007812 -24.320312 13.6875 -24.320312 14.367188 -23.640625 C 15.046875 -23.640625 15.761719 -22.960938 16.441406 -22.28125 C 16.441406 -20.246094 17.121094 -18.886719 17.121094 -16.8125 L 17.121094 -16.132812 C 17.121094 -12.058594 16.847656 -7.847656 16.847656 -4.449219 C 16.847656 -3.089844 17.355469 0.949219 17.019531 0.476562 C 16.339844 -0.441406 15.691406 -3.125 15.421875 -3.738281 C 15.046875 -4.621094 14.84375 -5.128906 14.84375 -5.84375 C 14.128906 -7.199219 13.449219 -8.527344 12.773438 -10.597656 C 10.769531 -15.351562 9.375 -20.144531 6.65625 -24.21875 C 6.65625 -24.21875 6.417969 -25.476562 5.46875 -25.476562 C 4.519531 -25.476562 3.941406 -25.644531 3.261719 -25.613281 C 2.242188 -25.542969 2.410156 -25.476562 1.699219 -25.476562 C 1.019531 -25.476562 0.507812 -24.898438 0.507812 -24.21875 C 0.507812 -23.539062 1.1875 -22.859375 2.582031 -22.859375 C 2.582031 -22.179688 3.191406 -21.46875 3.191406 -20.515625 C 3.191406 -19.566406 3.261719 -19.464844 3.261719 -18.785156 C 3.261719 -18.105469 3.261719 -17.425781 3.261719 -16.710938 L 3.261719 -16.03125 C 3.261719 -15.351562 3.632812 -14.605469 3.632812 -13.925781 C 3.632812 -12.535156 3.90625 -11.414062 3.90625 -9.917969 C 3.90625 -8.390625 3.941406 -6.523438 3.941406 -5.128906 C 3.941406 -3.769531 4.179688 -1.019531 4.179688 0.984375 C 4.179688 2.34375 4.585938 4.414062 3.941406 5.742188 C 3.941406 6.417969 2.820312 5.945312 2.820312 5.945312 C 2.820312 7.335938 2.511719 8.59375 3.191406 8.59375 C 3.871094 8.59375 7.066406 8.492188 7.746094 8.492188 C 8.425781 8.492188 9.273438 8.457031 9.273438 8.457031 C 10.597656 8.457031 10.019531 7.132812 10.019531 5.742188 C 9.375 5.742188 8.695312 5.742188 8.015625 5.0625 L 8.015625 1.664062 C 8.015625 0.984375 8.015625 0.304688 8.015625 -0.375 L 8.015625 -5.84375 C 8.015625 -7.847656 8.015625 -9.207031 8.015625 -11.277344 L 8.015625 -16.03125 C 9.375 -15.351562 8.933594 -13.757812 9.578125 -12.363281 C 9.578125 -12.363281 9.75 -11.886719 10.019531 -11.277344 C 10.429688 -10.359375 11.277344 -8.527344 11.617188 -7.234375 C 12.875 -2.683594 15.21875 3.871094 16.542969 7.949219 C 17.222656 8.628906 19.734375 9.070312 19.667969 6.964844 C 18.988281 -2.546875 19.125 -12.058594 19.125 -20.890625 C 19.125 -22.28125 18.445312 -22.960938 19.125 -23.640625 L 20.515625 -23.640625 C 20.515625 -23.640625 21.195312 -24.320312 21.195312 -25 Z M 21.195312 -25 "/></g></g></g><g fill="#5a945b" fill-opacity="1"><g transform="translate(168.25171, 191.748328)"><g><path d="M 13.824219 5.707031 C 13.078125 5.707031 11.921875 7.574219 11.921875 8.320312 C 11.921875 8.96875 13.078125 8.660156 13.824219 8.59375 C 15.285156 8.59375 16.507812 8.390625 17.933594 8.390625 L 18.816406 8.59375 C 20.3125 7.878906 18.816406 7.097656 18.816406 6.453125 L 18.816406 2.105469 C 18.171875 -4.28125 17.832031 -10.632812 17.152344 -16.269531 C 17.019531 -17.425781 16.746094 -18.75 16.066406 -20.109375 C 16.066406 -21.570312 14.605469 -24.386719 13.078125 -25.136719 C 11.71875 -25.917969 10.222656 -24.386719 10.222656 -24.386719 C 8.796875 -22.28125 7.4375 -20.109375 6.691406 -17.222656 C 5.910156 -15.761719 5.195312 -13.65625 5.195312 -11.515625 C 4.484375 -6.453125 3.769531 -0.0664062 3.089844 4.28125 C 3.089844 5.027344 3.089844 5.742188 2.34375 5.742188 C 1.699219 5.742188 0.882812 6.386719 0.203125 7.132812 L 1.699219 8.558594 C 3.769531 7.777344 5.808594 9.308594 7.980469 7.8125 C 7.980469 7.8125 8.085938 7.132812 8.085938 6.386719 C 7.4375 5.742188 6.691406 6.386719 5.910156 5.742188 C 5.910156 2.039062 5.910156 -1.425781 6.691406 -4.28125 C 6.691406 -5.808594 6.691406 -7.234375 7.4375 -7.949219 C 9.542969 -7.949219 11.71875 -7.234375 13.078125 -7.234375 C 13.824219 -3.632812 13.824219 1.359375 13.824219 5.707031 Z M 10.222656 -20.855469 L 10.972656 -21.570312 C 11.71875 -21.570312 11.71875 -20.855469 11.71875 -20.855469 C 12.464844 -18.75 13.078125 -15.761719 13.078125 -13.65625 L 13.078125 -9.375 C 11.71875 -9.375 9.542969 -9.375 7.4375 -10.019531 C 7.4375 -10.835938 8.085938 -13.007812 8.085938 -13.65625 C 8.796875 -16.507812 9.542969 -18.75 10.222656 -20.855469 Z M 10.222656 -20.855469 "/></g></g></g><g fill="#5a945b" fill-opacity="1"><g transform="translate(191.10825, 191.748328)"><g><path d="M 17.800781 -19.054688 C 19.90625 -19.054688 19.90625 -21.941406 19.191406 -24.050781 C 18.511719 -25.441406 15.082031 -25.441406 12.875 -25.441406 C 10.632812 -25.441406 7.746094 -25.273438 5.636719 -25.273438 C 3.53125 -25.273438 2.207031 -24.761719 0.816406 -24.050781 C 0.101562 -22.621094 0.816406 -20.449219 0.816406 -19.054688 C 1.527344 -18.34375 2.207031 -19.054688 2.207031 -19.054688 C 1.527344 -22.621094 5.027344 -23.335938 7.847656 -22.621094 C 8.558594 -20.449219 8.558594 -18.34375 8.558594 -15.523438 C 8.558594 -15.523438 8.558594 -14.808594 8.558594 -14.097656 L 8.558594 -10.5625 C 8.558594 -7.675781 8.457031 -5.027344 8.558594 -2.105469 C 8.628906 0.167969 8.558594 3.601562 8.558594 6.417969 C 7.847656 6.417969 7.167969 7.097656 6.453125 7.097656 C 6.453125 7.8125 6.453125 8.527344 7.167969 8.527344 L 13.554688 8.527344 C 14.265625 8.527344 14.980469 7.8125 14.980469 7.8125 C 14.980469 6.417969 13.144531 7.066406 12.875 6.417969 C 12.5 5.503906 12.875 4.28125 12.875 2.886719 L 12.875 1.460938 C 12.875 0.0664062 12.875 -2.105469 12.875 -4.246094 L 12.875 -17.628906 C 12.875 -19.054688 12.160156 -21.160156 12.875 -22.621094 C 14.265625 -22.621094 16.371094 -23.335938 17.085938 -22.621094 C 17.800781 -21.160156 17.085938 -19.734375 17.800781 -19.054688 Z M 17.800781 -19.054688 "/></g></g></g><g fill="#5a945b" fill-opacity="1"><g transform="translate(213.998755, 191.748328)"><g><path d="M 7.507812 3.566406 C 6.828125 0.78125 6.863281 -2.308594 6.863281 -5.773438 C 6.863281 -7.371094 6.828125 -9.578125 6.828125 -12.332031 C 6.828125 -14.4375 6.828125 -16.472656 6.828125 -18.582031 L 6.828125 -22.691406 C 7.507812 -23.4375 8.117188 -24.421875 7.644531 -24.898438 C 6.691406 -25.847656 4.753906 -25.578125 3.398438 -25.476562 C 2.070312 -25.375 1.289062 -25.476562 0.613281 -24.796875 C 0.613281 -23.4375 2.582031 -23.742188 2.71875 -22.691406 C 2.921875 -21.160156 2.71875 -19.972656 2.71875 -18.582031 L 2.71875 -1.289062 C 3.398438 0.78125 2.921875 3.023438 4.074219 4.925781 C 5.0625 6.488281 6.386719 8.117188 8.660156 8.457031 C 10.019531 8.457031 9.613281 8.390625 10.292969 8.390625 C 13.078125 8.390625 14.910156 5.945312 15.828125 4.246094 C 17.492188 1.15625 17.867188 -1.96875 17.867188 -6.113281 C 17.867188 -6.113281 17.867188 -6.863281 17.867188 -6.863281 L 17.867188 -13.757812 C 18.546875 -17.222656 17.390625 -21.738281 19.328125 -23.300781 C 20.109375 -23.914062 19.734375 -25.375 17.1875 -25.476562 C 15.660156 -25.542969 13.621094 -25.304688 12.09375 -25.304688 C 11.34375 -25.304688 12.398438 -24.117188 12.398438 -23.4375 C 12.398438 -23.4375 13.078125 -23.4375 13.757812 -22.691406 C 14.4375 -21.332031 13.757812 -18.582031 13.757812 -15.792969 L 13.757812 -5.433594 C 13.757812 -2.648438 13.859375 2.546875 11.34375 4.382812 C 9.78125 5.503906 8.1875 4.246094 7.507812 3.566406 Z M 7.507812 3.566406 "/></g></g></g><g fill="#5a945b" fill-opacity="1"><g transform="translate(236.957182, 191.748328)"><g><path d="M 14.980469 -10.394531 C 14.980469 -11.140625 14.230469 -11.140625 14.230469 -11.855469 L 14.980469 -12.601562 C 15.660156 -13.28125 16.710938 -14.539062 17.121094 -15.523438 C 17.933594 -17.492188 17.460938 -19.9375 17.121094 -21.332031 C 16.101562 -25.542969 9.851562 -25.714844 5.433594 -24.964844 C 4.753906 -24.964844 4.519531 -24.558594 3.804688 -24.558594 C 1.597656 -24.558594 0.644531 -24.523438 0.644531 -22.382812 C 0.644531 -21.636719 1.867188 -21.332031 3.292969 -21.332031 C 3.292969 -17.664062 3.738281 -15.386719 3.53125 -12.296875 C 3.464844 -11.277344 3.292969 -11.140625 3.292969 -10.394531 C 4.042969 -8.96875 3.292969 -7.472656 3.292969 -6.046875 L 3.292969 6.351562 C 2.546875 6.351562 1.867188 6.351562 1.121094 7.03125 C 1.867188 8.527344 2.546875 8.527344 4.042969 8.527344 C 5.433594 7.777344 8.527344 8.320312 9.953125 8.320312 C 10.664062 8.320312 10.5625 7.777344 10.5625 7.03125 C 10.5625 6.351562 9.101562 6.351562 9.101562 5.636719 C 8.425781 4.144531 8.425781 2.71875 8.425781 1.222656 C 8.425781 -1.664062 7.675781 -6.046875 8.425781 -9.714844 C 8.425781 -10.394531 9.101562 -10.394531 9.851562 -10.394531 C 10.5625 -9.714844 11.3125 -9.714844 11.3125 -8.96875 C 12.058594 -8.21875 12.195312 -7.8125 12.738281 -7.03125 C 14.4375 -4.550781 13.722656 -1.460938 14.164062 1.289062 C 14.910156 5.707031 12.839844 6.828125 14.335938 8.253906 C 16.40625 8.492188 19.394531 9 19.394531 6.828125 C 19.394531 6.113281 18.714844 6.113281 17.96875 6.113281 C 17.222656 0.984375 17.867188 -6.726562 14.980469 -10.394531 Z M 7.746094 -22.722656 C 8.425781 -22.722656 10.5625 -22.792969 11.3125 -22.792969 C 12.058594 -22.078125 12.738281 -21.601562 12.738281 -20.585938 C 12.738281 -19.15625 13.007812 -19.292969 12.738281 -17.664062 C 12.566406 -16.679688 12.058594 -15.523438 12.058594 -14.777344 C 11.3125 -14.027344 8.050781 -12.773438 8.015625 -13.757812 C 7.847656 -17.289062 7.746094 -19.804688 7.746094 -22.722656 Z M 7.746094 -22.722656 "/></g></g></g><g fill="#5a945b" fill-opacity="1"><g transform="translate(259.779766, 191.748328)"><g><path d="M 15.285156 -19.9375 C 18.070312 -19.9375 16.679688 -22.691406 16.679688 -24.082031 C 16.679688 -24.796875 15.964844 -25.476562 15.964844 -25.476562 L 9.035156 -25.476562 C 6.25 -24.796875 3.5 -24.796875 0.714844 -24.082031 C 0.714844 -24.082031 0.714844 -22.691406 0.714844 -22.691406 L 3.5 -22.691406 C 3.5 -20.652344 3.5 -18.546875 3.5 -16.472656 L 3.5 -13.722656 C 3.5 -10.9375 3.5 -8.867188 3.5 -6.757812 L 3.5 -5.367188 C 3.5 -1.15625 4.210938 2.242188 3.5 6.386719 C 2.820312 6.386719 1.425781 6.386719 0.714844 6.386719 L 0.714844 7.777344 C 4.855469 8.492188 8.355469 8.492188 11.785156 8.492188 L 15.285156 8.492188 C 15.964844 7.777344 16.679688 7.097656 16.679688 6.386719 C 16.679688 4.992188 16.679688 2.957031 15.285156 2.957031 C 13.894531 3.632812 15.285156 5.707031 13.894531 6.386719 C 11.785156 6.386719 10.429688 6.386719 8.355469 5.707031 C 8.355469 4.347656 8.152344 1.664062 8.152344 -0.441406 C 8.152344 -2.480469 7.644531 -5.367188 8.355469 -7.472656 C 9.035156 -7.472656 11.140625 -7.472656 11.785156 -7.472656 L 11.785156 -6.757812 C 11.785156 -6.082031 13.179688 -5.367188 13.179688 -5.367188 C 14.570312 -5.367188 13.179688 -9.578125 13.894531 -10.9375 C 13.179688 -11.617188 13.179688 -11.617188 12.5 -11.617188 C 11.785156 -11.617188 11.785156 -10.222656 11.785156 -9.578125 C 10.429688 -9.578125 8.355469 -9.578125 7.644531 -10.222656 C 8.355469 -11.617188 7.644531 -13.007812 7.644531 -15.117188 C 7.644531 -16.472656 7.746094 -17.492188 7.746094 -19.429688 C 7.746094 -20.992188 7.644531 -22.042969 8.355469 -22.691406 C 9.75 -23.402344 11.785156 -23.402344 13.179688 -23.402344 C 13.894531 -23.0625 13.894531 -23.0625 14.570312 -22.691406 C 15.285156 -22.042969 14.570312 -20.652344 15.285156 -19.9375 Z M 15.285156 -19.9375 "/></g></g></g><path stroke-linecap="butt" transform="matrix(0.75, 0, 0, 0.75, 140.676074, 157.24833)" fill="none" stroke-linejoin="miter" d="M 32.197528 12.663685 C 31.291278 10.80431 27.853778 12.252227 25.853777 11.71056 C 25.853777 11.71056 25.176694 11.986602 23.817319 11.986602 C 22.504819 11.986602 23.098569 11.71056 22.192319 11.71056 C 21.286069 13.569935 22.192319 13.569935 23.098569 14.476185 C 24.004819 14.476185 24.957944 15.382435 25.853777 16.288685 C 25.853777 19.007436 26.760027 20.825144 26.760027 23.575144 L 26.760027 24.481394 C 26.760027 29.924103 26.405861 35.538687 26.405861 40.064729 C 26.405861 41.877229 27.077736 47.273062 26.624611 46.632437 C 25.718361 45.413687 24.858986 41.830354 24.504819 41.012645 C 24.004819 39.84077 23.728777 39.168895 23.728777 38.205354 C 22.780861 36.40327 21.87461 34.632437 20.963152 31.866811 C 18.291277 25.533478 16.431902 19.142852 12.817318 13.715769 C 12.817318 13.715769 12.494402 12.033477 11.223568 12.033477 C 9.963151 12.033477 9.18711 11.809518 8.28086 11.856393 C 6.921485 11.944935 7.15586 12.033477 6.202734 12.033477 C 5.296484 12.033477 4.614193 12.80431 4.614193 13.715769 C 4.614193 14.606394 5.520443 15.517852 7.37461 15.517852 C 7.37461 16.424102 8.192318 17.372019 8.192318 18.642852 C 8.192318 19.913686 8.28086 20.049102 8.28086 20.955352 C 8.28086 21.861602 8.28086 22.767853 8.28086 23.720978 L 8.28086 24.627228 C 8.28086 25.533478 8.78086 26.528269 8.78086 27.43452 C 8.78086 29.293895 9.145443 30.783478 9.145443 32.77827 C 9.145443 34.80952 9.18711 37.30952 9.18711 39.168895 C 9.18711 40.970979 9.510026 44.637646 9.510026 47.314729 C 9.510026 49.127229 10.051693 51.882438 9.18711 53.653271 C 9.18711 54.559521 7.697526 53.929313 7.697526 53.929313 C 7.697526 55.78348 7.286068 57.455355 8.192318 57.455355 C 9.103776 57.455355 13.358985 57.319938 14.265235 57.319938 C 15.171485 57.319938 16.301693 57.278271 16.301693 57.278271 C 18.067319 57.278271 17.296485 55.507438 17.296485 53.653271 C 16.431902 53.653271 15.536068 53.653271 14.629818 52.747021 L 14.629818 48.220979 C 14.629818 47.314729 14.629818 46.408479 14.629818 45.502229 L 14.629818 38.205354 C 14.629818 35.538687 14.629818 33.726187 14.629818 30.960561 L 14.629818 24.627228 C 16.431902 25.533478 15.848568 27.658478 16.707943 29.512645 C 16.707943 29.512645 16.942318 30.142853 17.296485 30.960561 C 17.838152 32.189728 18.973569 34.632437 19.426694 36.356395 C 21.098569 42.418895 24.228777 51.163688 25.994402 56.590771 C 26.900652 57.497021 30.254819 58.09598 30.166278 55.288688 C 29.260028 42.606395 29.437111 29.924103 29.437111 18.148061 C 29.437111 16.288685 28.530861 15.382435 29.437111 14.476185 L 31.291278 14.476185 C 31.291278 14.476185 32.197528 13.569935 32.197528 12.663685 Z M 55.197529 53.606396 C 54.202738 53.606396 52.666279 56.09598 52.666279 57.101188 C 52.666279 57.955355 54.202738 57.543896 55.197529 57.455355 C 57.145446 57.455355 58.780863 57.18973 60.681905 57.18973 L 61.85378 57.455355 C 63.848572 56.50223 61.85378 55.465771 61.85378 54.601188 L 61.85378 48.809521 C 60.994405 40.293895 60.54128 31.825145 59.63503 24.304311 C 59.457946 22.767853 59.093363 21.002227 58.187113 19.184519 C 58.187113 17.241811 56.239196 13.481394 54.202738 12.486602 C 52.390237 11.444935 50.400654 13.481394 50.400654 13.481394 C 48.499612 16.288685 46.687112 19.184519 45.69232 23.033478 C 44.650654 24.981394 43.702737 27.788686 43.702737 30.642853 C 42.749612 37.398062 41.796487 45.913687 40.890237 51.705354 C 40.890237 52.700146 40.890237 53.653271 39.895445 53.653271 C 39.03607 53.653271 37.937112 54.512646 37.046486 55.507438 L 39.03607 57.40848 C 41.796487 56.372021 44.510029 58.40848 47.416279 56.413688 C 47.416279 56.413688 47.546487 55.507438 47.546487 54.512646 C 46.687112 53.653271 45.69232 54.512646 44.650654 53.653271 C 44.650654 48.720979 44.650654 44.095979 45.69232 40.293895 C 45.69232 38.257437 45.69232 36.356395 46.687112 35.408478 C 49.494404 35.408478 52.390237 36.356395 54.202738 36.356395 C 55.197529 41.158479 55.197529 47.814729 55.197529 53.606396 Z M 50.400654 18.189727 L 51.395446 17.241811 C 52.390237 17.241811 52.390237 18.189727 52.390237 18.189727 C 53.385029 21.002227 54.202738 24.981394 54.202738 27.788686 L 54.202738 33.507437 C 52.390237 33.507437 49.494404 33.507437 46.687112 32.642853 C 46.687112 31.549103 47.546487 28.65327 47.546487 27.788686 C 48.499612 23.986603 49.494404 21.002227 50.400654 18.189727 Z M 90.973573 20.590769 C 93.780865 20.590769 93.780865 16.74181 92.82774 13.934519 C 91.92149 12.075143 87.353781 12.075143 84.405865 12.075143 C 81.416281 12.075143 77.572531 12.309519 74.760031 12.309519 C 71.952739 12.309519 70.181905 12.981394 68.327739 13.934519 C 67.374613 15.83556 68.327739 18.731394 68.327739 20.590769 C 69.275655 21.543894 70.181905 20.590769 70.181905 20.590769 C 69.275655 15.83556 73.942322 14.887644 77.702739 15.83556 C 78.655864 18.731394 78.655864 21.543894 78.655864 25.299103 C 78.655864 25.299103 78.655864 26.252228 78.655864 27.205353 L 78.655864 31.913686 C 78.655864 35.762645 78.520448 39.299104 78.655864 43.189729 C 78.744406 46.220979 78.655864 50.799104 78.655864 54.559521 C 77.702739 54.559521 76.796489 55.465771 75.843364 55.465771 C 75.843364 56.413688 75.843364 57.366813 76.796489 57.366813 L 85.312115 57.366813 C 86.260031 57.366813 87.213156 56.413688 87.213156 56.413688 C 87.213156 54.559521 84.770448 55.418896 84.405865 54.559521 C 83.905865 53.340771 84.405865 51.705354 84.405865 49.845979 L 84.405865 47.944938 C 84.405865 46.090771 84.405865 43.189729 84.405865 40.34077 L 84.405865 22.491811 C 84.405865 20.590769 83.45274 17.783477 84.405865 15.83556 C 86.260031 15.83556 89.067323 14.887644 90.020448 15.83556 C 90.973573 17.783477 90.020448 19.684519 90.973573 20.590769 Z M 107.770449 50.752229 C 106.864199 47.038687 106.905866 42.913687 106.905866 38.304312 C 106.905866 36.168895 106.864199 33.231395 106.864199 29.55952 C 106.864199 26.747019 106.864199 24.028269 106.864199 21.220977 L 106.864199 15.747019 C 107.770449 14.752227 108.588158 13.434519 107.957949 12.80431 C 106.687116 11.533477 104.098574 11.89806 102.296491 12.033477 C 100.525657 12.163685 99.489199 12.033477 98.582949 12.939727 C 98.582949 14.752227 101.202741 14.345977 101.390241 15.747019 C 101.655866 17.783477 101.390241 19.372019 101.390241 21.220977 L 101.390241 44.273062 C 102.296491 47.038687 101.655866 50.033479 103.202741 52.569938 C 104.510033 54.648063 106.275658 56.825146 109.306908 57.278271 C 111.119408 57.278271 110.577741 57.18973 111.483991 57.18973 C 115.202742 57.18973 117.64545 53.929313 118.869409 51.663688 C 121.08295 47.538687 121.58295 43.366812 121.58295 37.851187 C 121.58295 37.851187 121.58295 36.856395 121.58295 36.856395 L 121.58295 27.658478 C 122.4892 23.033478 120.952742 17.017852 123.536075 14.92931 C 124.577742 14.111602 124.077742 12.163685 120.687117 12.033477 C 118.640242 11.944935 115.921492 12.252227 113.885033 12.252227 C 112.890241 12.252227 114.296492 13.845977 114.296492 14.752227 C 114.296492 14.752227 115.202742 14.752227 116.108992 15.747019 C 117.015242 17.559519 116.108992 21.220977 116.108992 24.934519 L 116.108992 38.757437 C 116.108992 42.470979 116.2392 49.392854 112.890241 51.835563 C 110.812116 53.340771 108.6767 51.663688 107.770449 50.752229 Z M 148.343369 32.142853 C 148.343369 31.148061 147.348577 31.148061 147.348577 30.189728 L 148.343369 29.194936 C 149.249619 28.288686 150.655869 26.616811 151.197536 25.299103 C 152.291286 22.679311 151.650661 19.418894 151.197536 17.559519 C 149.848577 11.944935 141.510035 11.71056 135.61941 12.705352 C 134.71316 12.705352 134.40066 13.257435 133.447534 13.257435 C 130.510034 13.257435 129.239201 13.30431 129.239201 16.158477 C 129.239201 17.153269 130.864201 17.559519 132.765243 17.559519 C 132.765243 22.450144 133.358993 25.486603 133.082951 29.601186 C 132.994409 30.960561 132.765243 31.148061 132.765243 32.142853 C 133.760035 34.049103 132.765243 36.038687 132.765243 37.939729 L 132.765243 54.47098 C 131.770451 54.47098 130.864201 54.47098 129.869409 55.37723 C 130.864201 57.366813 131.770451 57.366813 133.760035 57.366813 C 135.61941 56.372021 139.739202 57.101188 141.645452 57.101188 C 142.593368 57.101188 142.46316 56.372021 142.46316 55.37723 C 142.46316 54.47098 140.515243 54.47098 140.515243 53.517855 C 139.608993 51.528271 139.608993 49.627229 139.608993 47.627229 C 139.608993 43.778271 138.614201 37.939729 139.608993 33.054312 C 139.608993 32.142853 140.515243 32.142853 141.510035 32.142853 C 142.46316 33.054312 143.457952 33.054312 143.457952 34.049103 C 144.452744 35.043895 144.629827 35.585562 145.358994 36.62202 C 147.624619 39.929312 146.676702 44.054312 147.260035 47.726188 C 148.254827 53.606396 145.489202 55.101188 147.49441 57.00223 C 150.244411 57.319938 154.239203 57.997022 154.239203 55.101188 C 154.239203 54.148063 153.332952 54.148063 152.338161 54.148063 C 151.338161 47.314729 152.192327 37.033478 148.343369 32.142853 Z M 138.702743 15.705352 C 139.608993 15.705352 142.46316 15.61681 143.457952 15.61681 C 144.452744 16.564727 145.358994 17.194935 145.358994 18.554311 C 145.358994 20.460561 145.723577 20.267852 145.358994 22.450144 C 145.135035 23.762644 144.452744 25.299103 144.452744 26.293894 C 143.457952 27.293894 139.108993 28.970978 139.067327 27.658478 C 138.832952 22.944936 138.702743 19.595977 138.702743 15.705352 Z M 179.181912 19.418894 C 182.900663 19.418894 181.041288 15.747019 181.041288 13.887644 C 181.041288 12.939727 180.088163 12.033477 180.088163 12.033477 L 170.858995 12.033477 C 167.140245 12.939727 163.473578 12.939727 159.754828 13.887644 C 159.754828 13.887644 159.754828 15.747019 159.754828 15.747019 L 163.473578 15.747019 C 163.473578 18.465769 163.473578 21.278269 163.473578 24.028269 L 163.473578 27.700145 C 163.473578 31.413686 163.473578 34.179312 163.473578 36.986603 L 163.473578 38.845979 C 163.473578 44.460562 164.421495 48.986604 163.473578 54.512646 C 162.56212 54.512646 160.707953 54.512646 159.754828 54.512646 L 159.754828 56.372021 C 165.286078 57.319938 169.952745 57.319938 174.515246 57.319938 L 179.181912 57.319938 C 180.088163 56.372021 181.041288 55.465771 181.041288 54.512646 C 181.041288 52.658479 181.041288 49.934521 179.181912 49.934521 C 177.327746 50.840771 179.181912 53.606396 177.327746 54.512646 C 174.515246 54.512646 172.702745 54.512646 169.952745 53.606396 C 169.952745 51.793896 169.671495 48.220979 169.671495 45.413687 C 169.671495 42.694937 168.99962 38.845979 169.952745 36.038687 C 170.858995 36.038687 173.65587 36.038687 174.515246 36.038687 L 174.515246 36.986603 C 174.515246 37.892854 176.374621 38.845979 176.374621 38.845979 C 178.233996 38.845979 176.374621 33.231395 177.327746 31.413686 C 176.374621 30.507436 176.374621 30.507436 175.468371 30.507436 C 174.515246 30.507436 174.515246 32.366811 174.515246 33.231395 C 172.702745 33.231395 169.952745 33.231395 168.99962 32.366811 C 169.952745 30.507436 168.99962 28.65327 168.99962 25.840769 C 168.99962 24.028269 169.129828 22.679311 169.129828 20.090769 C 169.129828 18.012644 168.99962 16.611602 169.952745 15.747019 C 171.806912 14.799102 174.515246 14.799102 176.374621 14.799102 C 177.327746 15.252227 177.327746 15.252227 178.233996 15.747019 C 179.181912 16.611602 178.233996 18.465769 179.181912 19.418894 Z M 179.181912 19.418894 " stroke="#5a945b" stroke-width="2.491286" stroke-opacity="1" stroke-miterlimit="4"/><g fill="#5a945b" fill-opacity="1"><g transform="translate(152.360443, 232.676498)"><g><path d="M 18.5625 -12.703125 C 19.664062 -11.953125 20.21875 -11.257812 20.21875 -10.625 C 20.21875 -10.269531 20.097656 -9.898438 19.859375 -9.515625 C 19.628906 -9.128906 19.46875 -8.859375 19.375 -8.703125 C 19.28125 -8.546875 19.054688 -8.265625 18.703125 -7.859375 C 18.347656 -7.460938 17.957031 -7.113281 17.53125 -6.8125 C 17.113281 -6.507812 16.546875 -6.234375 15.828125 -5.984375 C 15.109375 -5.734375 14.316406 -5.609375 13.453125 -5.609375 C 12.597656 -5.609375 11.820312 -5.789062 11.125 -6.15625 C 10.4375 -6.519531 9.863281 -6.890625 9.40625 -7.265625 C 8.945312 -7.640625 8.582031 -7.828125 8.3125 -7.828125 C 8.039062 -7.828125 7.8125 -7.78125 7.625 -7.6875 C 7.320312 -7.53125 7.171875 -7.390625 7.171875 -7.265625 C 6.441406 -6.140625 5.765625 -5.578125 5.140625 -5.578125 C 4.515625 -5.578125 3.789062 -5.921875 2.96875 -6.609375 C 2.144531 -7.304688 1.734375 -7.878906 1.734375 -8.328125 C 1.734375 -8.703125 1.898438 -9.164062 2.234375 -9.71875 C 2.578125 -10.269531 2.925781 -10.738281 3.28125 -11.125 C 3.632812 -11.519531 4.023438 -11.859375 4.453125 -12.140625 C 5.578125 -12.941406 6.914062 -13.34375 8.46875 -13.34375 C 9.175781 -13.34375 9.828125 -13.226562 10.421875 -13 C 11.023438 -12.78125 11.484375 -12.539062 11.796875 -12.28125 C 12.585938 -11.550781 13.160156 -11.1875 13.515625 -11.1875 C 14.109375 -11.1875 14.5 -11.316406 14.6875 -11.578125 L 14.796875 -11.71875 C 15.523438 -12.800781 16.179688 -13.34375 16.765625 -13.34375 C 17.359375 -13.34375 17.957031 -13.128906 18.5625 -12.703125 Z M 18.5625 -12.703125 "/></g></g></g><g fill="#5a945b" fill-opacity="1"><g transform="translate(245.73538, 232.676498)"><g><path d="M 18.5625 -12.703125 C 19.664062 -11.953125 20.21875 -11.257812 20.21875 -10.625 C 20.21875 -10.269531 20.097656 -9.898438 19.859375 -9.515625 C 19.628906 -9.128906 19.46875 -8.859375 19.375 -8.703125 C 19.28125 -8.546875 19.054688 -8.265625 18.703125 -7.859375 C 18.347656 -7.460938 17.957031 -7.113281 17.53125 -6.8125 C 17.113281 -6.507812 16.546875 -6.234375 15.828125 -5.984375 C 15.109375 -5.734375 14.316406 -5.609375 13.453125 -5.609375 C 12.597656 -5.609375 11.820312 -5.789062 11.125 -6.15625 C 10.4375 -6.519531 9.863281 -6.890625 9.40625 -7.265625 C 8.945312 -7.640625 8.582031 -7.828125 8.3125 -7.828125 C 8.039062 -7.828125 7.8125 -7.78125 7.625 -7.6875 C 7.320312 -7.53125 7.171875 -7.390625 7.171875 -7.265625 C 6.441406 -6.140625 5.765625 -5.578125 5.140625 -5.578125 C 4.515625 -5.578125 3.789062 -5.921875 2.96875 -6.609375 C 2.144531 -7.304688 1.734375 -7.878906 1.734375 -8.328125 C 1.734375 -8.703125 1.898438 -9.164062 2.234375 -9.71875 C 2.578125 -10.269531 2.925781 -10.738281 3.28125 -11.125 C 3.632812 -11.519531 4.023438 -11.859375 4.453125 -12.140625 C 5.578125 -12.941406 6.914062 -13.34375 8.46875 -13.34375 C 9.175781 -13.34375 9.828125 -13.226562 10.421875 -13 C 11.023438 -12.78125 11.484375 -12.539062 11.796875 -12.28125 C 12.585938 -11.550781 13.160156 -11.1875 13.515625 -11.1875 C 14.109375 -11.1875 14.5 -11.316406 14.6875 -11.578125 L 14.796875 -11.71875 C 15.523438 -12.800781 16.179688 -13.34375 16.765625 -13.34375 C 17.359375 -13.34375 17.957031 -13.128906 18.5625 -12.703125 Z M 18.5625 -12.703125 "/></g></g></g></svg>